<svg width="50" height="47" viewBox="0 0 50 47" fill="none" xmlns="http://www.w3.org/2000/svg">
<g clip-path="url(#clip0_317_728)">
<path d="M14.1509 6.98276C14.1509 3.12629 10.9831 0 7.07547 0C3.1678 0 0 3.12629 0 6.98276V20.9483C0 24.8047 3.1678 27.931 7.07547 27.931C10.9831 27.931 14.1509 24.8047 14.1509 20.9483V6.98276Z" fill="#FF7F5D"/>
<path d="M14.1509 39.569C14.1509 35.7125 10.9831 32.5862 7.07547 32.5862C3.1678 32.5862 0 35.7125 0 39.569C0 43.4254 3.1678 46.5517 7.07547 46.5517C10.9831 46.5517 14.1509 43.4254 14.1509 39.569Z" fill="#8198AF"/>
<path d="M32.0753 6.98276C32.0753 3.12629 28.9075 0 24.9998 0C21.0921 0 17.9243 3.12629 17.9243 6.98276V39.569C17.9243 43.4254 21.0921 46.5517 24.9998 46.5517C28.9075 46.5517 32.0753 43.4254 32.0753 39.569V6.98276Z" fill="#11145A"/>
<path d="M50.0001 6.98276C50.0001 3.12629 46.8323 0 42.9246 0C39.0169 0 35.8491 3.12629 35.8491 6.98276V20.9483C35.8491 24.8047 39.0169 27.931 42.9246 27.931C46.8323 27.931 50.0001 24.8047 50.0001 20.9483V6.98276Z" fill="#8198AF"/>
<path d="M50.0001 39.569C50.0001 35.7125 46.8323 32.5862 42.9246 32.5862C39.0169 32.5862 35.8491 35.7125 35.8491 39.569C35.8491 43.4254 39.0169 46.5517 42.9246 46.5517C46.8323 46.5517 50.0001 43.4254 50.0001 39.569Z" fill="#FF7F5D"/>
</g>
<defs>
<clipPath id="clip0_317_728">
<rect width="50" height="46.5517" fill="white"/>
</clipPath>
</defs>
</svg>
